PathFileType	4	(x/y/z)	A01_FAST_T0021.trc
DataRate	CameraRate	NumFrames	NumMarkers	Units	OrigDataRate	OrigDataStartFrame	OrigNumFrames
240	240	10	48	mm	240	36	287
Frame#	Time	TOP_HEAD			R_AC			L_AC			R_ASIS			L_ASIS			R_PSIS			L_PSIS			SACRAL			L_IC			R_IC			L_GT			R_GT			R_LAT_KNEE			R_MED_KNEE			L_MED_KNEE			L_LAT_KNEE			R_TOE			L_TOE			R_1ST_MET			L_1ST_MET			L_5TH_MET			R_5TH_MET			R_LAT_ANK			R_MED_ANK			L_MED_ANK			L_LAT_ANK			L_HEEL_SUP			R_HEEL_SUP			L_HEEL_LAT			R_HEEL_LAT			L_HEEL_MED			R_HEEL_MED			R_LL_PROX_POST			R_LL_PROX_ANT			R_LL_DIST_ANT			R_LL_DIST_POST			R_THIGH_PROX_POST			R_THIGH_PROX_ANT			R_THIGH_DIST_ANT			R_THIGH_DIST_POST			L_PROS_PROX_ANT			L_PROS_PROX_POST			L_PROS_DIST_POST			L_PROS_DIST_ANT			L_THIGH_PROX_ANT			L_THIGH_PROX_POST			L_THIGH_DIST_POST			L_THIGH_DIST_ANT			
		X1	Y1	Z1	X2	Y2	Z2	X3	Y3	Z3	X4	Y4	Z4	X5	Y5	Z5	X6	Y6	Z6	X7	Y7	Z7	X8	Y8	Z8	X9	Y9	Z9	X10	Y10	Z10	X11	Y11	Z11	X12	Y12	Z12	X13	Y13	Z13	X14	Y14	Z14	X15	Y15	Z15	X16	Y16	Z16	X17	Y17	Z17	X18	Y18	Z18	X19	Y19	Z19	X20	Y20	Z20	X21	Y21	Z21	X22	Y22	Z22	X23	Y23	Z23	X24	Y24	Z24	X25	Y25	Z25	X26	Y26	Z26	X27	Y27	Z27	X28	Y28	Z28	X29	Y29	Z29	X30	Y30	Z30	X31	Y31	Z31	X32	Y32	Z32	X33	Y33	Z33	X34	Y34	Z34	X35	Y35	Z35	X36	Y36	Z36	X37	Y37	Z37	X38	Y38	Z38	X39	Y39	Z39	X40	Y40	Z40	X41	Y41	Z41	X42	Y42	Z42	X43	Y43	Z43	X44	Y44	Z44	X45	Y45	Z45	X46	Y46	Z46	X47	Y47	Z47	X48	Y48	Z48	

36	0.14634	-549.12	1790.6	287.89	-675.3	1531.6	528.53	-731.18	1507.5	73.543	-718.96	1056.3	537.93	-676.69	1002.3	188.36	-918.31	1068.9	382.43	-896.87	1056.9	254.48	-925.55	1033.8	316.35	-714.09	1116.8	136.15	-741.64	1177.1	527.51	-722.68	920.14	142.33	-810.55	958.09	569.73	-943.63	577.39	511.46	-798.38	520.89	404.76	-566.14	560.6	378.43	-585.8	565.16	217.57	-1118.2	58.434	422.61	-281.46	114	268.39	-1183.4	56.531	370.05	-358.04	76.254	322.07	-383.48	64.28	192.71	-1213	61.42	503.86	-1229	201.12	478.59	-1208.1	200.03	377.88	-501.74	126.74	303.86	-528.94	113.83	235.11	-602.52	62.991	271.83	-1311.1	247.02	412.52	-585.56	36.806	240.53	-1327.9	227.43	445.84	-577.35	35.824	305.36	-1322.1	222.85	385.33	-1116.6	483.22	497.28	-1066.8	438.11	525.7	-1104.4	373.81	508.3	-1146.7	405.66	489.61	-890.4	840.63	539.71	-819.86	838.28	556.49	-843.41	749.8	549.17	-909.63	753.28	530.49	-520.75	496.23	230.76	-573.81	482.47	218.08	-564.59	420.45	224.69	-515.38	440.32	236.49	-619.85	808.74	191.42	-684.41	790.37	165.33	-650.72	723.59	182.09	-592.17	741.24	205.16
37	0.15052	-541.57	1791.2	287.36	-667.87	1532.6	527.2	-723.26	1507.4	72.228	-711.81	1056.6	537.68	-670.01	1003.1	188.03	-911.28	1069.3	382.99	-890.1	1057.8	254.92	-918.53	1034.4	316.85	-706.91	1117.3	135.82	-734.09	1178	526.96	-716.33	921.04	142.17	-802.88	958.03	569.6	-932.93	576.24	512.35	-790.4	520.6	405.26	-559.61	561.1	377.39	-579.2	565.75	216.75	-1117.1	57.564	422.9	-280.63	111.66	268.16	-1181.2	58.081	370.03	-357.52	74.661	321.97	-383.1	62.806	192.56	-1211.4	63.496	503.63	-1222.9	203.83	479.06	-1201.5	202.48	378.46	-500.45	126.39	303.64	-527.92	113.66	234.94	-602.23	63.401	271.77	-1302.9	252.31	412.59	-585.44	37.14	240.49	-1320.6	233.22	445.81	-577.25	36.106	305.32	-1314.7	228.78	385.33	-1106.6	484.24	497.65	-1057.5	438.55	526.42	-1095.9	374.73	508.94	-1137.7	407.1	489.97	-881.94	839.6	539.97	-811.3	837.95	556.42	-834.04	749.25	549.39	-900.34	752.06	530.91	-515.03	496.06	230	-568.26	482.9	217.36	-559.79	420.79	224.09	-510.3	440.08	235.77	-613.5	809.44	190.66	-678.31	791.13	165.07	-644.6	724.31	181.66	-585.76	741.93	204.25
38	0.15471	-534.02	1791.7	286.84	-660.47	1533.8	525.88	-715.32	1507.5	70.934	-704.65	1057	537.4	-663.35	1003.9	187.67	-904.27	1069.7	383.57	-883.37	1058.7	255.38	-911.53	1035	317.39	-699.75	1117.9	135.49	-726.57	1179	526.41	-710.05	921.99	141.99	-795.15	958.04	569.47	-921.98	575.09	513.3	-782.34	520.36	405.76	-553.22	561.57	376.25	-572.76	566.28	215.85	-1115.8	56.61	423.23	-279.87	109.45	267.89	-1178.8	59.83	370.05	-357.03	73.161	321.84	-382.75	61.405	192.38	-1209.4	65.825	503.4	-1216.5	206.7	479.55	-1194.5	205.06	379.06	-499.2	126.08	303.4	-526.92	113.52	234.77	-601.93	63.796	271.73	-1294.3	257.75	412.67	-585.3	37.465	240.47	-1312.9	239.17	445.78	-577.13	36.382	305.29	-1307	234.88	385.34	-1096.3	485.3	498.07	-1048	439.02	527.19	-1087.1	375.7	509.61	-1128.4	408.6	490.37	-873.37	838.57	540.28	-802.65	837.67	556.39	-824.51	748.74	549.65	-890.9	750.84	531.38	-509.46	495.85	229.16	-562.83	483.28	216.57	-555.11	421.09	223.42	-505.36	439.82	234.97	-607.22	810.13	189.84	-672.29	791.9	164.77	-638.59	725.03	181.16	-579.46	742.59	203.28
39	0.15889	-526.5	1792.4	286.35	-653.09	1535.1	524.56	-707.36	1507.6	69.665	-697.49	1057.5	537.1	-656.72	1004.8	187.28	-897.28	1070.2	384.17	-876.65	1059.6	255.86	-904.56	1035.7	317.95	-692.6	1118.5	135.16	-719.07	1180	525.89	-703.82	922.98	141.81	-787.38	958.11	569.33	-910.81	573.94	514.3	-774.18	520.17	406.24	-546.97	562	375.03	-566.47	566.76	214.88	-1114.3	55.572	423.58	-279.15	107.34	267.59	-1176.1	61.777	370.11	-356.56	71.747	321.69	-382.44	60.073	192.19	-1207.3	68.413	503.17	-1209.8	209.74	480.04	-1187.3	207.79	379.65	-497.98	125.81	303.15	-525.97	113.4	234.58	-601.62	64.179	271.7	-1285.4	263.35	412.77	-585.15	37.782	240.45	-1304.8	245.27	445.76	-577	36.653	305.27	-1298.9	241.15	385.37	-1085.7	486.41	498.52	-1038.3	439.54	528.02	-1078.1	376.74	510.31	-1118.8	410.16	490.8	-864.69	837.54	540.62	-793.89	837.42	556.38	-814.84	748.26	549.95	-881.31	749.62	531.91	-504.04	495.61	228.25	-557.55	483.62	215.72	-550.56	421.37	222.7	-500.56	439.54	234.11	-601.03	810.8	188.94	-666.37	792.68	164.41	-632.69	725.74	180.6	-573.28	743.21	202.22
40	0.16307	-519.01	1793	285.87	-645.75	1536.5	523.26	-699.38	1507.8	68.424	-690.32	1058.1	536.78	-650.11	1005.8	186.86	-890.29	1070.7	384.76	-869.96	1060.6	256.34	-897.61	1036.4	318.51	-685.46	1119.1	134.83	-711.62	1181.1	525.39	-697.64	923.99	141.61	-779.56	958.24	569.19	-899.43	572.8	515.35	-765.94	520.03	406.71	-540.86	562.39	373.72	-560.35	567.18	213.84	-1112.6	54.455	423.97	-278.48	105.33	267.27	-1173.1	63.918	370.23	-356.11	70.411	321.52	-382.14	58.804	191.98	-1204.8	71.263	502.95	-1202.8	212.95	480.53	-1179.8	210.67	380.25	-496.79	125.58	302.88	-525.04	113.3	234.39	-601.31	64.55	271.69	-1276.1	269.07	412.88	-585	38.091	240.45	-1296.3	251.49	445.76	-576.85	36.919	305.26	-1290.4	247.56	385.42	-1074.9	487.56	499	-1028.3	440.11	528.88	-1068.8	377.84	511.04	-1109	411.79	491.26	-855.91	836.52	541.01	-785.04	837.22	556.4	-805.04	747.82	550.27	-871.59	748.41	532.48	-498.78	495.34	227.27	-552.41	483.92	214.81	-546.13	421.61	221.92	-495.89	439.23	233.19	-594.92	811.42	187.97	-660.53	793.45	164.01	-626.91	726.43	179.99	-567.22	743.78	201.1
41	0.16725	-511.55	1793.7	285.4	-638.45	1537.9	521.97	-691.39	1508.2	67.213	-683.16	1058.7	536.43	-643.51	1006.8	186.41	-883.31	1071.2	385.34	-863.27	1061.5	256.81	-890.68	1037	319.08	-678.34	1119.7	134.5	-704.21	1182.3	524.91	-691.49	925.03	141.41	-771.71	958.42	569.04	-887.85	571.68	516.44	-757.61	519.94	407.16	-534.88	562.75	372.36	-554.4	567.54	212.76	-1110.7	53.266	424.38	-277.85	103.42	266.93	-1169.8	66.246	370.39	-355.67	69.145	321.34	-381.87	57.596	191.76	-1201.9	74.372	502.75	-1195.6	216.32	481.03	-1172.1	213.69	380.84	-495.65	125.37	302.6	-524.14	113.21	234.2	-600.99	64.912	271.68	-1266.5	274.89	413.02	-584.84	38.393	240.46	-1287.4	257.82	445.77	-576.68	37.178	305.25	-1281.5	254.06	385.48	-1063.8	488.76	499.52	-1018.1	440.73	529.78	-1059.3	379.01	511.79	-1098.9	413.49	491.75	-847.03	835.51	541.43	-776.11	837.06	556.45	-795.12	747.43	550.64	-861.73	747.21	533.09	-493.66	495.03	226.23	-547.41	484.17	213.86	-541.82	421.82	221.1	-491.37	438.9	232.22	-588.89	812.01	186.94	-654.78	794.21	163.57	-621.25	727.09	179.32	-561.28	744.29	199.9
42	0.17143	-504.12	1794.4	284.95	-631.21	1539.4	520.7	-683.4	1508.5	66.035	-675.99	1059.4	536.07	-636.93	1007.8	185.93	-876.34	1071.8	385.9	-856.6	1062.5	257.26	-883.77	1037.7	319.63	-671.23	1120.4	134.18	-696.86	1183.4	524.44	-685.39	926.06	141.19	-763.83	958.65	568.88	-876.1	570.59	517.57	-749.18	519.91	407.61	-529.05	563.07	370.96	-548.61	567.84	211.63	-1108.5	52.015	424.81	-277.25	101.59	266.59	-1166.1	68.752	370.61	-355.25	67.945	321.15	-381.61	56.446	191.54	-1198.7	77.734	502.57	-1188.1	219.84	481.52	-1164.1	216.85	381.43	-494.54	125.19	302.32	-523.28	113.15	234.01	-600.67	65.265	271.68	-1256.6	280.8	413.18	-584.67	38.688	240.48	-1278.3	264.23	445.81	-576.5	37.433	305.24	-1272.3	260.65	385.55	-1052.5	490.01	500.07	-1007.6	441.4	530.71	-1049.5	380.25	512.56	-1088.6	415.25	492.25	-838.07	834.52	541.88	-767.1	836.94	556.53	-785.1	747.08	551.03	-851.76	746.05	533.75	-488.7	494.7	225.15	-542.55	484.38	212.87	-537.64	421.99	220.25	-486.99	438.54	231.22	-582.93	812.54	185.85	-649.11	794.95	163.08	-615.69	727.72	178.61	-555.44	744.75	198.64
43	0.17561	-496.73	1795.1	284.53	-624.02	1540.9	519.46	-675.41	1509	64.893	-668.83	1060.1	535.69	-630.35	1008.8	185.44	-869.38	1072.3	386.43	-849.94	1063.5	257.68	-876.86	1038.4	320.16	-664.13	1121	133.86	-689.55	1184.6	524.01	-679.31	927.1	140.95	-755.91	958.93	568.72	-864.18	569.53	518.72	-740.66	519.94	408.03	-523.36	563.35	369.53	-543	568.09	210.47	-1106	50.715	425.27	-276.67	99.852	266.24	-1161.9	71.421	370.88	-354.84	66.809	320.96	-381.36	55.357	191.32	-1195	81.337	502.43	-1180.3	223.51	482	-1155.9	220.13	381.99	-493.46	125.03	302.03	-522.44	113.1	233.82	-600.34	65.609	271.68	-1246.4	286.77	413.35	-584.49	38.975	240.51	-1268.7	270.7	445.87	-576.31	37.681	305.24	-1262.8	267.26	385.64	-1041	491.3	500.64	-996.96	442.12	531.67	-1039.6	381.55	513.33	-1078	417.07	492.78	-829.02	833.56	542.36	-758.03	836.86	556.63	-774.97	746.78	551.46	-841.69	744.91	534.44	-483.89	494.33	224.03	-537.84	484.55	211.85	-533.58	422.14	219.36	-482.75	438.16	230.19	-577.04	813.01	184.7	-643.51	795.68	162.56	-610.24	728.32	177.86	-549.72	745.13	197.33
44	0.17979	-489.38	1795.8	284.12	-616.9	1542.5	518.25	-667.42	1509.5	63.788	-661.68	1060.9	535.3	-623.79	1009.8	184.93	-862.42	1072.9	386.92	-843.29	1064.4	258.05	-869.95	1039.1	320.66	-657.05	1121.6	133.54	-682.31	1185.8	523.59	-673.25	928.13	140.7	-747.97	959.26	568.55	-852.11	568.52	519.9	-732.04	520.02	408.45	-517.8	563.61	368.09	-537.55	568.28	209.3	-1103.2	49.385	425.74	-276.13	98.2	265.9	-1157.4	74.236	371.21	-354.45	65.737	320.78	-381.13	54.33	191.11	-1190.9	85.162	502.32	-1172.2	227.31	482.47	-1147.4	223.54	382.53	-492.43	124.9	301.75	-521.64	113.06	233.63	-600.02	65.944	271.69	-1236	292.76	413.53	-584.32	39.253	240.55	-1258.9	277.19	445.95	-576.12	37.923	305.24	-1253.1	273.87	385.73	-1029.2	492.64	501.24	-986.1	442.9	532.63	-1029.4	382.91	514.1	-1067.3	418.95	493.32	-819.9	832.63	542.85	-748.89	836.83	556.76	-764.76	746.54	551.91	-831.52	743.81	535.16	-479.23	493.95	222.9	-533.27	484.69	210.81	-529.65	422.26	218.46	-478.64	437.76	229.15	-571.22	813.43	183.5	-637.97	796.38	162	-604.9	728.88	177.08	-544.1	745.45	195.98
45	0.18397	-482.07	1796.6	283.73	-609.85	1544	517.08	-659.45	1510	62.722	-654.54	1061.7	534.89	-617.23	1010.9	184.41	-855.46	1073.4	387.35	-836.63	1065.4	258.36	-863.05	1039.8	321.11	-649.99	1122.3	133.23	-675.13	1187	523.19	-667.21	929.15	140.43	-740.01	959.63	568.38	-839.91	567.55	521.09	-723.33	520.16	408.85	-512.39	563.83	366.66	-532.26	568.43	208.11	-1100	48.046	426.22	-275.62	96.642	265.57	-1152.4	77.18	371.59	-354.07	64.732	320.6	-380.91	53.368	190.9	-1186.2	89.185	502.25	-1163.8	231.23	482.91	-1138.7	227.05	383.04	-491.44	124.79	301.47	-520.86	113.03	233.45	-599.7	66.269	271.71	-1225.4	298.75	413.71	-584.15	39.522	240.59	-1248.9	283.67	446.05	-575.92	38.159	305.25	-1243	280.43	385.82	-1017.3	494.02	501.85	-975.05	443.73	533.61	-1019	384.33	514.87	-1056.3	420.88	493.87	-810.7	831.74	543.37	-739.7	836.85	556.91	-754.48	746.35	552.4	-821.26	742.75	535.91	-474.7	493.54	221.75	-528.83	484.79	209.77	-525.83	422.34	217.56	-474.66	437.35	228.11	-565.46	813.8	182.28	-632.48	797.07	161.42	-599.64	729.41	176.28	-538.58	745.71	194.6
